<svg width="32" height="32" viewBox="0 0 32 32" fill="none" xmlns="http://www.w3.org/2000/svg">
<rect width="32" height="32" rx="8" fill="#F8E6E6"/>
<path d="M24.3084 21.2753C24.3084 21.5753 24.2417 21.8837 24.1001 22.1837C23.9584 22.4837 23.7751 22.767 23.5334 23.0337C23.1251 23.4837 22.6751 23.8087 22.1667 24.017C21.6667 24.2253 21.1251 24.3337 20.5417 24.3337C19.6917 24.3337 18.7834 24.1337 17.8251 23.7253C16.8667 23.317 15.9084 22.767 14.9584 22.0753C14.0001 21.3753 13.0917 20.6003 12.2251 19.742C11.3667 18.8753 10.5917 17.967 9.90008 17.017C9.21675 16.067 8.66675 15.117 8.26675 14.1753C7.86675 13.2253 7.66675 12.317 7.66675 11.4503C7.66675 10.8837 7.76675 10.342 7.96675 9.84199C8.16675 9.33366 8.48341 8.86699 8.92508 8.45033C9.45841 7.92533 10.0417 7.66699 10.6584 7.66699C10.8917 7.66699 11.1251 7.71699 11.3334 7.81699C11.5501 7.91699 11.7417 8.06699 11.8917 8.28366L13.8251 11.0087C13.9751 11.217 14.0834 11.4087 14.1584 11.592C14.2334 11.767 14.2751 11.942 14.2751 12.1003C14.2751 12.3003 14.2167 12.5003 14.1001 12.692C13.9917 12.8837 13.8334 13.0837 13.6334 13.2837L13.0001 13.942C12.9084 14.0337 12.8667 14.142 12.8667 14.2753C12.8667 14.342 12.8751 14.4003 12.8917 14.467C12.9167 14.5337 12.9417 14.5837 12.9584 14.6337C13.1084 14.9087 13.3667 15.267 13.7334 15.7003C14.1084 16.1337 14.5084 16.5753 14.9417 17.017C15.3917 17.4587 15.8251 17.867 16.2667 18.242C16.7001 18.6087 17.0584 18.8587 17.3417 19.0087C17.3834 19.0253 17.4334 19.0503 17.4917 19.0753C17.5584 19.1003 17.6251 19.1087 17.7001 19.1087C17.8417 19.1087 17.9501 19.0587 18.0417 18.967L18.6751 18.342C18.8834 18.1337 19.0834 17.9753 19.2751 17.8753C19.4667 17.7587 19.6584 17.7003 19.8667 17.7003C20.0251 17.7003 20.1917 17.7337 20.3751 17.8087C20.5584 17.8837 20.7501 17.992 20.9584 18.1337L23.7167 20.092C23.9334 20.242 24.0834 20.417 24.1751 20.6253C24.2584 20.8337 24.3084 21.042 24.3084 21.2753Z" stroke="#850508" stroke-width="1.5" stroke-miterlimit="10"/>
</svg>
