<svg width="24" height="24" viewBox="0 0 24 24" fill="none" xmlns="http://www.w3.org/2000/svg">
<circle cx="12" cy="12" r="12" transform="matrix(-1 0 0 1 24 0)" fill="#F2F2F2"/>
<path d="M6 7.98763C8.22 7.76763 10.4533 7.6543 12.68 7.6543C14 7.6543 15.32 7.72096 16.64 7.8543L18 7.98763" stroke="#4D4D4D" stroke-linecap="round" stroke-linejoin="round"/>
<path d="M14.3333 7.31398L14.1866 6.44065C14.08 5.80732 14 5.33398 12.8733 5.33398H11.1266C9.99998 5.33398 9.91331 5.83398 9.81331 6.44732L9.66665 7.31398" stroke="#4D4D4D" stroke-linecap="round" stroke-linejoin="round"/>
<path d="M7.43332 10.0938L7.86665 16.8071C7.93998 17.8537 7.99998 18.6671 9.85998 18.6671H14.14C16 18.6671 16.06 17.8537 16.1333 16.8071L16.5667 10.0938" stroke="#4D4D4D" stroke-linecap="round" stroke-linejoin="round"/>
<path d="M13.1133 15H10.8933" stroke="#4D4D4D" stroke-linecap="round" stroke-linejoin="round"/>
<path d="M13.6667 12.334H10.3334" stroke="#4D4D4D" stroke-linecap="round" stroke-linejoin="round"/>
</svg>
