<svg width="38" height="38" viewBox="0 0 38 38" fill="none" xmlns="http://www.w3.org/2000/svg">
<rect width="38" height="38" rx="6" fill="black"/>
<path d="M18.7278 7.66545C19.0092 7.547 19.3465 7.59064 19.5909 7.77811C19.8264 7.95268 19.9708 8.2497 19.9687 8.55162C19.9704 11.9039 19.9687 15.2567 19.9695 18.609C20.9102 17.6244 21.8492 16.6376 22.789 15.6517C22.9236 15.5101 23.0551 15.3542 23.2357 15.2758C23.5768 15.1137 24.0094 15.2028 24.2632 15.4918C24.6022 15.8458 24.5937 16.4773 24.2475 16.8233C22.7298 18.4126 21.2113 20.0015 19.691 21.5877C19.358 21.9391 18.7631 21.9399 18.4305 21.5873C16.9533 20.0451 15.479 18.5003 14.0022 16.9578C13.8711 16.8251 13.7361 16.6857 13.6718 16.5027C13.5296 16.1455 13.6254 15.7038 13.9022 15.4468C14.2352 15.1106 14.8139 15.1146 15.1426 15.4544C16.148 16.5036 17.1488 17.5576 18.1525 18.609C18.152 15.344 18.1525 12.0789 18.152 8.81436C18.1525 8.68165 18.1469 8.54806 18.1623 8.41625C18.2027 8.0836 18.4288 7.78524 18.7278 7.66545Z" fill="white"/>
<path d="M10.7711 23.7574C11.6888 23.7387 12.6073 23.7547 13.5254 23.7494C18.0964 23.7498 22.6669 23.7489 27.2374 23.7498C27.51 23.7489 27.7795 23.8839 27.9477 24.1088C28.1568 24.3786 28.2036 24.7718 28.0648 25.0871C27.943 25.3783 27.6718 25.5948 27.3703 25.638C27.2259 25.6571 27.0803 25.6482 26.9359 25.6495C21.5997 25.65 16.2636 25.6491 10.9274 25.65C10.6485 25.6607 10.3674 25.5364 10.1894 25.3102C9.97095 25.0457 9.91517 24.6503 10.0476 24.3301C10.169 24.0233 10.4556 23.7953 10.7711 23.7574Z" fill="white"/>
</svg>
