<svg width="160" height="66" viewBox="0 0 160 66" fill="none" xmlns="http://www.w3.org/2000/svg">
<rect x="45.373" y="15.979" width="114.627" height="10.4098" rx="5.2049" fill="#FFEADD"/>
<rect x="15.124" y="35.3848" width="132.139" height="10.4547" rx="5.22734" fill="#FFEADD"/>
<rect x="78.0098" y="26.3877" width="46.1692" height="8.8083" rx="4.40415" fill="#FFEADD"/>
<rect x="29.4526" y="45.8364" width="31.8408" height="8.84627" rx="4.42313" fill="#FFEADD"/>
<rect y="54.6846" width="69.2537" height="8.84627" rx="4.42313" fill="#FFEADD"/>
<path d="M111.443 58.1206C113.362 58.1208 114.922 59.6868 114.922 61.6245C114.922 63.5622 113.362 65.1282 111.443 65.1284C109.524 65.1284 107.962 63.5623 107.962 61.6245C107.962 59.6866 109.524 58.1206 111.443 58.1206Z" stroke="#DB2424"/>
<ellipse cx="81.1943" cy="36.8014" rx="25.4726" ry="25.6241" fill="#FFEADD"/>
<path d="M73 40L85 28" stroke="#DB2424" stroke-width="2" stroke-linecap="round" stroke-linejoin="round"/>
<path d="M85 40L73 28" stroke="#DB2424" stroke-width="2" stroke-linecap="round" stroke-linejoin="round"/>
<path d="M45.3735 0.5C47.2926 0.500201 48.853 2.06615 48.853 4.00391C48.853 5.9416 47.2925 7.50761 45.3735 7.50781C43.4544 7.50781 41.8931 5.94172 41.8931 4.00391C41.8931 2.06603 43.4543 0.5 45.3735 0.5Z" stroke="#DB2424"/>
<path d="M62.1344 15.7027C61.8285 15.3673 61.3083 15.3432 60.9857 15.6607C56.476 20.0975 53.7558 26.069 53.3713 32.4222C52.9702 39.0497 55.1421 45.5752 59.4295 50.6236C63.717 55.672 69.785 58.8491 76.3552 59.4855C82.9254 60.122 89.4847 58.168 94.651 54.0354C99.8173 49.9028 103.187 43.9142 104.051 37.3314C104.914 30.7486 103.204 24.0856 99.2797 18.7465C95.3558 13.4073 89.5249 9.80874 83.0154 8.7091C76.7734 7.65463 70.375 8.97688 65.061 12.4C64.6827 12.6436 64.5896 13.1529 64.844 13.5258C65.1001 13.9012 65.611 13.9959 65.9924 13.7515C70.9556 10.5721 76.923 9.34633 82.7449 10.3298C88.8368 11.3589 94.2938 14.7267 97.966 19.7234C101.638 24.7202 103.239 30.9558 102.431 37.1164C101.623 43.277 98.4691 48.8815 93.6342 52.7491C88.7992 56.6167 82.6606 58.4453 76.5118 57.8497C70.363 57.254 64.6841 54.2807 60.6717 49.5561C56.6592 44.8315 54.6266 38.7245 55.002 32.522C55.3609 26.5916 57.8945 21.0165 62.0955 16.8676C62.4156 16.5515 62.4384 16.0362 62.1344 15.7027Z" fill="#DB2424"/>
</svg>
