<svg width="72" height="72" viewBox="0 0 72 72" fill="none" xmlns="http://www.w3.org/2000/svg">
<circle cx="36" cy="36" r="36" fill="#F8E6E6"/>
<path d="M45.566 41.4153C44.8391 40.9725 44.6811 40.3401 44.6811 39.5811C44.7127 37.3833 44.6811 35.1697 44.6969 32.9719C44.6969 31.8176 44.8865 31.5172 45.8979 30.9954C45.2342 26.5682 40.7146 22.8366 35.9264 22.7734C30.8695 22.7102 26.3183 26.2836 25.4966 31.0112C26.4764 31.3275 26.7292 32.0548 26.7134 33.0193C26.6818 35.2646 26.6976 37.5256 26.6976 39.7709C26.6976 40.9409 26.1445 41.4943 24.9751 41.4943C24.2482 41.4943 23.5213 41.5101 22.7943 41.4943C20.8348 41.4311 19.2861 39.8974 19.2229 37.9525C19.1913 36.8457 19.1913 35.7547 19.2229 34.6479C19.2703 33.0193 20.2659 31.707 21.8462 31.2168C22.257 31.0903 22.4151 30.9006 22.5099 30.4736C23.8215 24.2281 29.3367 19.785 35.7367 19.8008C42.1052 19.8166 47.5888 24.2597 48.9004 30.4578C48.9952 30.8847 49.1532 31.0903 49.5641 31.2168C51.176 31.7228 52.1558 33.0509 52.1874 34.727C52.2032 35.7547 52.2032 36.7825 52.1874 37.826C52.14 39.6602 50.9548 41.1148 49.169 41.4627C48.774 41.5418 48.6318 41.6999 48.5211 42.0477C46.8777 46.6805 43.6697 49.6057 38.9447 50.9338C38.6919 51.0129 38.4074 51.2026 38.2494 51.424C37.2064 52.8945 35.3259 53.2423 33.9352 52.1988C32.5604 51.1868 32.3234 49.2262 33.4138 47.898C34.5199 46.5382 36.4795 46.4592 37.8543 47.6608C38.0439 47.8348 38.4548 47.9138 38.6919 47.8506C41.9788 46.8228 44.2228 44.6725 45.566 41.4153ZM23.6793 38.4743C23.6793 36.9722 23.6793 35.5175 23.6793 34.0629C22.4151 33.9522 22.2254 34.1261 22.2254 35.3278C22.2254 35.9603 22.2254 36.5927 22.2254 37.2252C22.2096 38.4269 22.4151 38.6008 23.6793 38.4743ZM47.7152 38.4901C49.0268 38.6008 49.1849 38.4427 49.2007 37.2252C49.2007 36.5769 49.2007 35.9128 49.2007 35.2646C49.2007 34.1261 48.8688 33.8731 47.7152 34.1419C47.7152 35.565 47.7152 37.0038 47.7152 38.4901Z" fill="#BE070B"/>
</svg>
