<svg width="160" height="66" viewBox="0 0 160 66" fill="none" xmlns="http://www.w3.org/2000/svg">
<rect x="45.373" y="15.9795" width="114.627" height="10.4098" rx="5.2049" fill="#FEF4E5"/>
<rect x="15.124" y="35.3848" width="132.139" height="10.4547" rx="5.22734" fill="#FEF4E5"/>
<rect x="78.0098" y="26.3887" width="46.1692" height="8.8083" rx="4.40415" fill="#FEF4E5"/>
<rect x="29.4531" y="45.8369" width="31.8408" height="8.84627" rx="4.42313" fill="#FEF4E5"/>
<rect y="54.6855" width="69.2537" height="8.84627" rx="4.42313" fill="#FEF4E5"/>
<path d="M111.443 58.1211C113.362 58.1213 114.923 59.6872 114.923 61.625C114.923 63.5627 113.362 65.1287 111.443 65.1289C109.524 65.1289 107.963 63.5628 107.963 61.625C107.963 59.6871 109.524 58.1211 111.443 58.1211Z" stroke="#F59302"/>
<ellipse cx="81.1943" cy="36.8019" rx="25.4726" ry="25.6241" fill="#FEF4E5"/>
<path d="M45.374 0.5C47.2931 0.500201 48.8535 2.06615 48.8535 4.00391C48.8534 5.9416 47.293 7.50761 45.374 7.50781C43.4549 7.50781 41.8936 5.94172 41.8936 4.00391C41.8936 2.06603 43.4548 0.5 45.374 0.5Z" stroke="#F59302"/>
<path d="M62.1339 15.7022C61.8281 15.3668 61.3079 15.3427 60.9852 15.6602C56.4755 20.097 53.7553 26.0685 53.3708 32.4217C52.9697 39.0492 55.1416 45.5747 59.429 50.6231C63.7165 55.6715 69.7845 58.8486 76.3547 59.485C82.9249 60.1215 89.4842 58.1675 94.6505 54.0349C99.8168 49.9023 103.187 43.9137 104.05 37.3309C104.914 30.7481 103.203 24.0852 99.2792 18.746C95.3554 13.4068 89.5244 9.80826 83.015 8.70861C76.773 7.65414 70.3745 8.97639 65.0605 12.3995C64.6822 12.6431 64.5891 13.1524 64.8435 13.5253C65.0996 13.9007 65.6105 13.9954 65.9919 13.751C70.9551 10.5716 76.9225 9.34584 82.7444 10.3293C88.8363 11.3585 94.2933 14.7262 97.9656 19.7229C101.638 24.7197 103.239 30.9553 102.43 37.1159C101.622 43.2765 98.4686 48.881 93.6337 52.7486C88.7987 56.6162 82.6601 58.4448 76.5113 57.8492C70.3625 57.2536 64.6836 54.2802 60.6712 49.5556C56.6587 44.831 54.6261 38.724 55.0015 32.5215C55.3604 26.5911 57.894 21.016 62.095 16.8671C62.4151 16.551 62.4379 16.0357 62.1339 15.7022Z" fill="#F59302"/>
<path d="M84.3221 21.7547C84.8192 21.1081 85.7344 20.8294 86.501 21.1071C87.1413 21.3212 87.6099 21.8978 87.7963 22.5381C88.1618 23.791 88.5019 25.0513 88.8652 26.3053C89.7857 26.3413 90.684 26.7017 91.3716 27.3197C92.6649 28.4497 93.2725 30.3163 92.8839 31.9964C92.6627 33.0257 92.0456 33.9521 91.1873 34.5531C91.5054 35.6894 91.8255 36.8247 92.1478 37.9599C92.2889 38.4348 92.3953 38.9415 92.2742 39.4344C92.092 40.2972 91.2684 40.9566 90.3944 40.9587C89.6435 40.9884 89.038 40.4743 88.3755 40.2018C86.5263 39.3984 84.5117 39.0274 82.5066 38.9288C81.2334 38.9002 79.9222 38.9055 78.6996 39.3136C79.125 40.8325 79.5547 42.3494 79.9823 43.8673C80.1434 44.4206 80.1918 45.0291 79.9802 45.576C79.6916 46.3668 78.9165 46.9392 78.0835 46.99C76.982 47.1035 75.992 46.2321 75.7488 45.1838C75.3117 43.6447 74.88 42.1035 74.445 40.5633C73.9174 40.7615 73.315 40.7212 72.8654 40.3598C72.3378 40.5124 71.7965 40.734 71.2362 40.6333C70.3042 40.4976 69.5249 39.745 69.2743 38.8419C68.8783 37.4501 68.4865 36.0573 68.0969 34.6634C67.8347 33.7412 68.1095 32.6547 68.8625 32.042C69.2795 31.6848 69.8335 31.5915 70.3411 31.4325C70.4969 31 70.8202 30.6131 71.2752 30.4912C72.977 29.9888 74.683 29.5012 76.3849 28.9987C77.0715 28.7581 77.7107 28.3988 78.3373 28.032C80.4235 26.7473 82.3149 25.0789 83.685 23.0278C83.983 22.6462 83.9999 22.1204 84.3221 21.7547ZM85.6027 22.2084C85.1246 22.3547 84.9603 22.9324 85.1046 23.3755C86.5547 28.544 88.0185 33.7083 89.4687 38.8779C89.5529 39.1768 89.6677 39.5022 89.9468 39.674C90.2964 39.9146 90.8167 39.7884 91.0325 39.4259C91.2126 39.1461 91.1821 38.7942 91.0947 38.4889C89.6772 33.4581 88.2587 28.4274 86.8433 23.3967C86.7485 23.084 86.6927 22.7469 86.4936 22.4808C86.2946 22.2084 85.9186 22.0918 85.6027 22.2084ZM77.4211 29.8361C78.1794 32.519 78.9323 35.2018 79.6895 37.8847C82.5761 37.5338 85.548 37.8889 88.2766 38.8991C86.9096 34.0507 85.5437 29.2012 84.1768 24.3517C82.3886 26.6731 80.0549 28.5737 77.4211 29.8361ZM89.2033 27.5042C89.7477 29.4535 90.2975 31.4018 90.8504 33.349C91.4717 32.7596 91.8276 31.9158 91.8403 31.0583C91.9129 29.4567 90.8156 27.8041 89.2033 27.5042ZM71.6501 31.5936C71.3742 31.6275 71.5026 31.9424 71.5448 32.1162C72.264 34.586 72.9117 37.0791 73.6647 39.5383C75.3117 39.1323 76.9272 38.5991 78.5616 38.1423C77.8171 35.5029 77.0746 32.8635 76.3301 30.2252C74.7704 30.6831 73.2066 31.1272 71.6501 31.5936ZM69.506 33.0214C69.1542 33.3914 69.0816 33.9606 69.2332 34.4376C69.606 35.7679 69.983 37.0971 70.3558 38.4274C70.4748 38.879 70.7907 39.3008 71.2457 39.445C71.6238 39.5722 72.0071 39.3941 72.3704 39.2955C71.7396 37.0642 71.113 34.8308 70.4822 32.5985C70.1452 32.7002 69.7661 32.7617 69.506 33.0214ZM75.5561 40.2389C75.9678 41.7123 76.387 43.1825 76.7977 44.657C76.8946 45.0068 77.0146 45.382 77.3148 45.612C77.6802 45.9205 78.2594 45.9004 78.608 45.5749C78.965 45.2654 79.0282 44.7365 78.8997 44.3008C78.4711 42.7458 78.0245 41.1961 77.5917 39.6432C76.9125 39.8383 76.2353 40.0418 75.5561 40.2389Z" fill="#F59302"/>
</svg>
