<svg width="116" height="56" viewBox="0 0 116 56" fill="none" xmlns="http://www.w3.org/2000/svg">
<path d="M54.9917 0H61.0083C61.6497 0.103383 62.3014 0.0347434 62.9479 0.0745712C65.5076 0.235577 68.0749 0.33896 70.6227 0.656735C74.4038 1.04484 78.1601 1.65921 81.8755 2.45831C86.6511 3.5057 91.3568 4.90052 95.8723 6.77497C98.9454 8.05369 101.926 9.56546 104.716 11.3797C107.348 13.1025 109.809 15.1193 111.834 17.5293C113.353 19.3648 114.62 21.4392 115.334 23.7179C115.706 24.8093 115.867 25.9567 116 27.0965V28.837C115.847 30.6234 115.417 32.3885 114.666 34.0214C113.292 37.0424 111.062 39.6024 108.553 41.7531C106.184 43.7716 103.544 45.4546 100.794 46.9112C97.6822 48.5476 94.4197 49.8915 91.0839 51.0059C84.9001 53.0803 78.4774 54.4031 72.0027 55.1836C70.4564 55.3895 68.8989 55.4869 67.3474 55.6429C65.4871 55.8098 63.6209 55.8928 61.7538 55.92C60.987 56.0064 60.2151 55.9386 59.4466 55.9852C57.9113 56.0276 56.376 55.9657 54.8407 55.9632C53.801 55.8717 52.7553 55.9225 51.7155 55.8378C49.642 55.7657 47.5788 55.5446 45.5138 55.3581C39.1039 54.665 32.7367 53.4667 26.5811 51.5482C23.7246 50.6534 20.909 49.6187 18.1864 48.3756C14.9359 46.8901 11.7953 45.1342 8.94991 42.9691C6.27082 40.9303 3.83482 38.5008 2.13406 35.584C1.20094 33.9731 0.506647 32.2139 0.196176 30.3776C0.100647 29.9226 0.0725 29.4582 0 29.0006V27.0075C0.0742059 26.5414 0.110029 26.0694 0.197882 25.6051C0.425618 24.2085 0.891324 22.8569 1.508 21.5841C2.58526 19.369 4.11374 17.3878 5.88529 15.6769C7.18603 14.355 8.65309 13.2076 10.1654 12.1348C14.8966 8.82991 20.248 6.50465 25.7221 4.7107C30.9302 3.03285 36.2995 1.86598 41.7191 1.10671C43.6433 0.81181 45.5829 0.636398 47.5174 0.42709C49.19 0.31608 50.8617 0.183886 52.5369 0.112704C53.3515 0.0101688 54.1797 0.122026 54.9917 0ZM55.8139 3.00065C55.1503 3.05149 54.4816 2.97607 53.8197 3.06081C51.1603 3.0981 48.5127 3.34638 45.8626 3.54891C39.6925 4.16413 33.5504 5.18948 27.5773 6.8631C22.8511 8.17572 18.2231 9.89171 13.8944 12.2026C10.5287 14.0389 7.30118 16.2481 4.77988 19.1546C3.18062 21.0062 1.89865 23.1849 1.37494 25.5864C1.17876 26.3652 1.14806 27.1685 1.09091 27.9642C1.08665 28.1201 1.10712 28.2752 1.12332 28.4303C1.18047 30.27 1.74597 32.069 2.60062 33.6926C3.36997 35.1222 4.35512 36.4331 5.48185 37.6042C5.73518 37.8864 5.98935 38.1712 6.28703 38.4101C8.3375 40.3913 10.7206 41.9997 13.2001 43.403C17.9382 46.0528 23.084 47.9086 28.3151 49.3348C33.6536 50.7627 39.1159 51.7296 44.6131 52.3075C46.1023 52.449 47.5899 52.6278 49.0851 52.6948C49.7811 52.782 50.4847 52.7431 51.1799 52.832C52.3749 52.8541 53.5639 52.9693 54.7605 52.9447C55.1307 52.9405 55.4949 53.0312 55.8668 53.01C57.0899 53.0049 58.3122 53.0091 59.5353 53.0083C59.9916 53.0049 60.4505 53.0312 60.9034 52.9591C61.7589 52.9176 62.6204 52.9727 63.4725 52.8702C64.8082 52.8422 66.1405 52.7448 67.4745 52.6668C72.5563 52.2736 77.6236 51.6075 82.6108 50.5483C86.4396 49.7331 90.2284 48.7103 93.9114 47.3858C97.1637 46.2172 100.342 44.8207 103.335 43.0937C106.279 41.387 109.056 39.3321 111.285 36.7518C112.131 35.7586 112.874 34.6765 113.481 33.5232C114.367 31.7758 114.932 29.8285 114.861 27.86C114.895 26.6592 114.629 25.4762 114.278 24.3348C113.246 21.3553 111.196 18.8309 108.833 16.7768C106.29 14.5617 103.379 12.7983 100.355 11.3103C96.7935 9.56715 93.0525 8.20453 89.2449 7.09783C84.2134 5.64369 79.0557 4.63613 73.8596 3.97092C72.2979 3.80229 70.7421 3.57179 69.1735 3.47265C67.5819 3.36249 65.9938 3.19724 64.3971 3.1464C63.5475 3.04895 62.6886 3.1142 61.8382 3.02861C59.8313 2.99217 57.8226 2.96505 55.8139 3.00065Z" fill="black"/>
<path d="M60.0659 7.04126C61.1493 6.88054 62.2488 6.94113 63.3398 6.95711C63.339 6.96721 63.3381 6.98657 63.3373 6.99666C62.8024 7.07155 62.2795 7.35007 61.9848 7.80782C61.4295 8.603 61.2838 9.57992 61.191 10.519C61.1825 16.0961 61.2021 21.6741 61.1808 27.2513C59.0047 27.2387 56.8277 27.2395 54.6517 27.2504C54.6287 22.4028 54.6482 17.5535 54.6414 12.7059C54.6508 12.2263 54.6048 11.7425 54.7028 11.2687C54.8595 10.1513 55.4599 9.08767 56.3797 8.4103C57.4333 7.59746 58.7594 7.22049 60.0659 7.04126Z" fill="#BE070B"/>
<path d="M41.4606 10.4433C42.0202 10.3541 42.5763 10.2304 43.1436 10.2085C43.1402 10.657 43.1257 11.1072 43.1734 11.554C42.8369 11.538 42.4997 11.5498 42.165 11.5817C40.5084 11.8603 38.8902 12.403 37.4423 13.252C36.0651 14.0396 34.8386 15.1849 34.2246 16.6591C33.7391 17.7429 33.6812 18.963 33.8558 20.1217C33.4623 18.7358 33.527 17.2271 33.9665 15.8572C34.3907 14.5159 35.29 13.348 36.4203 12.5057C37.8877 11.4034 39.6737 10.8085 41.4606 10.4433Z" fill="#BE070B"/>
<path d="M42.0253 12.5266C42.751 12.3305 43.5047 12.275 44.2542 12.3111C44.25 14.4282 44.2508 16.5462 44.2551 18.6641C43.3821 18.8147 42.5261 19.0672 41.7213 19.434C40.8841 19.8388 40.0698 20.4084 39.6474 21.2533C39.2019 22.1301 39.3007 23.2391 39.8901 24.0275C40.4165 24.7588 41.2341 25.2266 42.0849 25.4992C42.5968 25.6541 43.13 25.7079 43.6538 25.8072C43.4792 25.8855 43.285 25.8728 43.0985 25.8745C41.1021 25.8989 39.018 25.6187 37.2763 24.5913C36.692 24.2682 36.2227 23.7877 35.7781 23.3014C34.9375 22.2378 34.5832 20.8553 34.6198 19.5199C34.613 17.9262 35.331 16.3661 36.4893 15.2672C37.9968 13.819 39.9983 12.9801 42.0253 12.5266Z" fill="#BE070B"/>
<path d="M71.9503 12.3231C73.158 12.2103 74.3445 12.5259 75.4926 12.86C77.1261 13.4044 78.7316 14.1903 79.9299 15.4424C80.8949 16.4218 81.5107 17.737 81.6163 19.1019C81.7193 20.4726 81.4493 21.9098 80.6496 23.0558C79.9486 24.0445 78.9002 24.7564 77.7623 25.1738C76.1714 25.7594 74.4501 25.9319 72.762 25.8646C72.7228 25.8486 72.6428 25.8158 72.6036 25.7998C73.6341 25.6702 74.6928 25.4456 75.5496 24.8305C76.2318 24.3609 76.7403 23.6272 76.8536 22.8051C76.9592 22.0192 76.7011 21.1903 76.1569 20.6055C75.335 19.6698 74.1196 19.2045 72.9451 18.8696C72.6206 18.7804 72.291 18.7055 71.9537 18.6794C71.9427 16.5607 71.9503 14.4419 71.9503 12.3231Z" fill="#BE070B"/>
<path d="M27.0346 16.4688C27.4043 16.425 27.785 16.4242 28.1546 16.4763C28.7389 16.6446 29.284 17.0199 29.5599 17.5677C30.0982 18.5017 29.8342 19.8026 28.962 20.4488C28.3931 20.8898 27.6112 21.0177 26.9197 20.8275C26.148 20.6171 25.5058 19.9675 25.3466 19.1875C25.2469 18.5901 25.2989 17.9379 25.6464 17.423C25.9768 16.9593 26.4631 16.5823 27.0346 16.4688Z" fill="#BE070B"/>
<path d="M22.0931 16.545C22.8025 16.4297 23.5699 16.5803 24.1031 17.0793C25.0067 17.8417 25.0953 19.3495 24.2998 20.2171C23.8629 20.7295 23.1671 21.0526 22.484 20.9912C21.927 21.0316 21.4024 20.7565 20.9944 20.4047C20.2968 19.7711 20.1035 18.6983 20.468 17.8467C20.767 17.1996 21.3742 16.6729 22.0931 16.545Z" fill="#BE070B"/>
<path d="M43.8283 19.0571C45.1535 19.0344 46.489 19.1429 47.775 19.4719C49.2195 19.8472 50.6325 20.5717 51.5583 21.7598C52.4713 22.8731 52.8767 24.3305 52.8384 25.7492C52.7455 27.0038 52.3572 28.2559 51.6094 29.2841C50.5473 30.7769 48.8533 31.7193 47.103 32.2048C46.1628 32.4917 45.1816 32.6129 44.203 32.6785C34.9766 32.6785 25.7501 32.6785 16.5228 32.6777C15.7418 32.6516 14.9616 32.798 14.2266 33.053C13.7037 33.2507 13.1876 33.5419 12.8733 34.0139C12.7515 34.231 12.6876 34.4734 12.5752 34.6947C12.5454 34.0821 12.4355 33.4678 12.5292 32.8552C12.5897 31.5619 12.7932 30.256 13.3306 29.0653C13.8102 27.9984 14.6431 27.0509 15.7495 26.5948C16.3951 26.3273 17.096 26.1749 17.7987 26.2019C26.2313 26.2052 34.664 26.2002 43.0967 26.2044C44.3129 26.1943 45.5776 26.0201 46.6244 25.3663C47.132 25.0339 47.5842 24.5989 47.89 24.0764C48.2264 23.4899 48.2171 22.7881 48.1591 22.1368C48.0178 21.4536 47.5928 20.8427 47.0375 20.4194C46.3059 19.8556 45.4337 19.4946 44.542 19.2616C44.3027 19.1959 44.0557 19.1581 43.8283 19.0571Z" fill="#BE070B"/>
<path d="M66.4374 20.0219C68.1391 19.2343 70.0572 19.0315 71.9164 19.0585C71.712 19.1502 71.4889 19.1864 71.2742 19.2427C70.3578 19.4758 69.4584 19.836 68.7123 20.4208C68.1281 20.8583 67.7031 21.5138 67.5804 22.2307C67.52 22.9493 67.5745 23.7411 68.0293 24.3369C68.6996 25.276 69.7965 25.8364 70.9191 26.0526C72.2213 26.2857 73.5491 26.1797 74.8641 26.2032C82.5294 26.2032 90.1947 26.2049 97.86 26.2024C99.1171 26.1511 100.417 26.5819 101.315 27.4688C102.349 28.4667 102.825 29.8795 103.066 31.2562C103.21 32.4182 103.345 33.6047 103.135 34.7659C103.089 34.1659 102.682 33.6459 102.163 33.3564C101.379 32.9071 100.463 32.7194 99.566 32.6782C90.9059 32.6748 82.2467 32.6782 73.5866 32.6774C72.5952 32.6673 71.6013 32.7186 70.615 32.5991C68.7592 32.3745 66.8965 31.7812 65.4205 30.6183C64.4768 29.8947 63.7495 28.8984 63.3509 27.7868C63.0673 27.0565 62.9506 26.2722 62.9037 25.4964C62.9548 24.5893 63.086 23.6612 63.5093 22.8425C64.097 21.5904 65.1803 20.6034 66.4374 20.0219Z" fill="#BE070B"/>
<path d="M19.5429 20.6895C20.0292 20.6255 20.5487 20.6171 21.0036 20.8249C21.8297 21.1859 22.3995 22.0703 22.3492 22.9664C22.339 23.5874 22.0358 24.1857 21.5657 24.5921C20.6433 25.4285 19.008 25.2804 18.2611 24.2841C17.8122 23.7103 17.6521 22.9185 17.8821 22.2259C18.0959 21.4602 18.7619 20.8611 19.5429 20.6895Z" fill="#BE070B"/>
<path d="M24.5656 20.6851C25.0928 20.6203 25.66 20.622 26.1344 20.8905C26.8439 21.2859 27.3949 22.0542 27.314 22.8864C27.3941 23.78 26.7672 24.6156 25.9632 24.9639C25.5723 25.1507 25.1277 25.1347 24.7052 25.112C24.1159 25.0531 23.5989 24.6972 23.2352 24.2495C22.8119 23.7043 22.6884 22.9638 22.8605 22.3033C23.0495 21.4997 23.7565 20.856 24.5656 20.6851Z" fill="#BE070B"/>
<path d="M29.5077 20.6912C29.9915 20.6281 30.5102 20.6121 30.9633 20.8208C31.5016 21.0236 31.93 21.462 32.1557 21.9812C32.5602 22.8411 32.3158 23.9443 31.5961 24.5678C30.741 25.352 29.2531 25.3276 28.4431 24.4904C27.5829 23.6733 27.5676 22.1697 28.4014 21.3299C28.6978 21.016 29.0904 20.8031 29.5077 20.6912Z" fill="#BE070B"/>
<path d="M54.5802 28.3405C56.7639 28.3363 58.9477 28.3152 61.1306 28.3514C61.226 29.2206 61.1289 30.0941 61.1399 30.965C61.2379 32.058 61.0769 33.1536 61.1655 34.2466C61.2064 35.0603 61.088 35.874 61.1612 36.6868C61.1987 37.4728 61.1272 38.257 61.1382 39.0429C61.1902 39.7716 61.1715 40.502 61.1348 41.2307C61.1451 42.4853 61.2924 43.7702 60.9355 44.9945C60.5991 46.1776 59.6955 47.1394 58.6078 47.7031C57.4487 48.3023 56.1379 48.5421 54.8476 48.659C54.0104 48.6498 53.1672 48.7129 52.3351 48.6077C52.749 48.5295 53.1851 48.4462 53.4934 48.1357C54.1288 47.5256 54.3979 46.637 54.5137 45.7914C54.6015 45.3134 54.5716 44.8262 54.5759 44.3441C54.5802 39.0093 54.5708 33.6753 54.5802 28.3405Z" fill="#BE070B"/>
<path d="M25.2347 33.4183C26.1835 33.3645 27.1187 33.8239 27.7097 34.5459C28.5742 35.6078 28.5861 37.2604 27.7089 38.3181C27.1723 38.9972 26.3351 39.4112 25.4689 39.4692C24.5917 39.5054 23.6846 39.1781 23.0791 38.5377C22.5263 37.9832 22.2487 37.2049 22.2103 36.4383C22.2461 35.787 22.4352 35.1214 22.8482 34.6023C23.3993 33.8719 24.3098 33.4099 25.2347 33.4183Z" fill="#BE070B"/>
</svg>
