<svg width="20" height="20" viewBox="0 0 20 20" fill="none" xmlns="http://www.w3.org/2000/svg">
<g clip-path="url(#clip0_382_5855)">
<path d="M6.35845 2.97507C6.50793 2.89353 6.66678 3.01897 6.66678 3.18924V14.4667C6.66678 14.664 6.53169 14.8306 6.35845 14.9251L4.40011 16.0417C3.03345 16.8251 1.90845 16.1751 1.90845 14.5917V6.4834C1.90845 5.9584 2.28345 5.3084 2.75011 5.04173L6.35845 2.97507Z" fill="#666666"/>
<path d="M12.2219 5.06214C12.3922 5.1465 12.5 5.32013 12.5 5.51021V16.2868C12.5 16.6553 12.115 16.8972 11.783 16.7372L8.40798 15.1112C8.23498 15.0279 8.125 14.8528 8.125 14.6608V3.83878C8.125 3.46792 8.51456 3.22613 8.8469 3.39071L12.2219 5.06214Z" fill="#666666"/>
<path d="M18.3333 5.40806V13.5164C18.3333 14.0414 17.9583 14.6914 17.4916 14.9581L14.7069 16.554C14.3735 16.7451 13.9583 16.5044 13.9583 16.1202V5.32338C13.9583 5.14387 14.0545 4.97813 14.2104 4.88914L15.8416 3.95806C17.2083 3.17473 18.3333 3.82473 18.3333 5.40806Z" fill="#666666"/>
</g>
<defs>
<clipPath id="clip0_382_5855">
<rect width="20" height="20" fill="white"/>
</clipPath>
</defs>
</svg>
