<svg width="32" height="32" viewBox="0 0 32 32" fill="none" xmlns="http://www.w3.org/2000/svg">
<rect width="32" height="32" rx="8" fill="#F8E6E6"/>
<path d="M13.6333 15.0587C13.55 15.0503 13.45 15.0503 13.3583 15.0587C11.375 14.992 9.79999 13.367 9.79999 11.367C9.79999 9.32533 11.45 7.66699 13.5 7.66699C15.5417 7.66699 17.2 9.32533 17.2 11.367C17.1917 13.367 15.6167 14.992 13.6333 15.0587Z" stroke="#850508" stroke-width="1.5" stroke-linecap="round" stroke-linejoin="round"/>
<path d="M19.675 9.33301C21.2916 9.33301 22.5917 10.6413 22.5917 12.2497C22.5917 13.8247 21.3417 15.108 19.7833 15.1663C19.7167 15.158 19.6417 15.158 19.5667 15.1663" stroke="#850508" stroke-width="1.5" stroke-linecap="round" stroke-linejoin="round"/>
<path d="M9.46666 18.133C7.45 19.483 7.45 21.683 9.46666 23.0247C11.7583 24.558 15.5167 24.558 17.8083 23.0247C19.825 21.6747 19.825 19.4747 17.8083 18.133C15.525 16.608 11.7667 16.608 9.46666 18.133Z" stroke="#850508" stroke-width="1.5" stroke-linecap="round" stroke-linejoin="round"/>
<path d="M21.2833 22.667C21.8833 22.542 22.45 22.3003 22.9167 21.942C24.2167 20.967 24.2167 19.3587 22.9167 18.3837C22.4583 18.0337 21.9 17.8003 21.3083 17.667" stroke="#850508" stroke-width="1.5" stroke-linecap="round" stroke-linejoin="round"/>
</svg>
