<svg width="160" height="66" viewBox="0 0 160 66" fill="none" xmlns="http://www.w3.org/2000/svg">
<rect x="45.373" y="15.9785" width="114.627" height="10.4098" rx="5.2049" fill="#F2FDDF"/>
<rect x="15.124" y="35.3848" width="132.139" height="10.4547" rx="5.22734" fill="#F2FDDF"/>
<rect x="78.0098" y="26.3867" width="46.1692" height="8.8083" rx="4.40415" fill="#F2FDDF"/>
<rect x="29.4531" y="45.8359" width="31.8408" height="8.84627" rx="4.42313" fill="#F2FDDF"/>
<rect y="54.6836" width="69.2537" height="8.84627" rx="4.42313" fill="#F2FDDF"/>
<path d="M111.443 58.1211C113.362 58.1213 114.923 59.6872 114.923 61.625C114.923 63.5627 113.362 65.1287 111.443 65.1289C109.524 65.1289 107.963 63.5628 107.963 61.625C107.963 59.6871 109.524 58.1211 111.443 58.1211Z" stroke="#66B949"/>
<ellipse cx="81.1943" cy="36.8019" rx="25.4726" ry="25.6241" fill="#F2FDDF"/>
<path d="M68.1875 34.6875L76.0625 42.5625L91.8125 25.6875" stroke="#66B949" stroke-width="1.5" stroke-linecap="round" stroke-linejoin="round"/>
<path d="M45.374 0.5C47.2931 0.500201 48.8535 2.06615 48.8535 4.00391C48.8534 5.9416 47.293 7.50761 45.374 7.50781C43.4549 7.50781 41.8936 5.94172 41.8936 4.00391C41.8936 2.06603 43.4548 0.5 45.374 0.5Z" stroke="#66B949"/>
<path d="M62.1339 15.7022C61.8281 15.3668 61.3079 15.3427 60.9852 15.6602C56.4755 20.097 53.7553 26.0685 53.3708 32.4217C52.9697 39.0492 55.1416 45.5747 59.429 50.6231C63.7165 55.6715 69.7845 58.8486 76.3547 59.485C82.9249 60.1215 89.4842 58.1675 94.6505 54.0349C99.8168 49.9023 103.187 43.9137 104.05 37.3309C104.914 30.7481 103.203 24.0852 99.2792 18.746C95.3554 13.4068 89.5244 9.80826 83.015 8.70861C76.773 7.65414 70.3745 8.97639 65.0605 12.3995C64.6822 12.6431 64.5891 13.1524 64.8435 13.5253C65.0996 13.9007 65.6105 13.9954 65.9919 13.751C70.9551 10.5716 76.9225 9.34584 82.7444 10.3293C88.8363 11.3585 94.2933 14.7262 97.9656 19.7229C101.638 24.7197 103.239 30.9553 102.43 37.1159C101.622 43.2765 98.4686 48.881 93.6337 52.7486C88.7987 56.6162 82.6601 58.4448 76.5113 57.8492C70.3625 57.2536 64.6836 54.2802 60.6712 49.5556C56.6587 44.831 54.6261 38.724 55.0015 32.5215C55.3604 26.5911 57.894 21.016 62.095 16.8671C62.4151 16.551 62.4379 16.0357 62.1339 15.7022Z" fill="#66B949"/>
</svg>
