<svg width="35" height="31" viewBox="0 0 35 31" fill="none" xmlns="http://www.w3.org/2000/svg">
<circle cx="27" cy="23" r="8" fill="#F8E6E6"/>
<path d="M18.1874 2.5H11.8124C9.56238 2.5 9.06239 3.62501 8.77489 5.01251L7.74988 9.91249H22.2499L21.2249 5.01251C20.9374 3.62501 20.4374 2.5 18.1874 2.5Z" stroke="#AB060A" stroke-width="2" stroke-linecap="round" stroke-linejoin="round"/>
<path d="M24.0499 17.8999C24.1499 18.9624 23.2999 19.875 22.2124 19.875H20.5124C19.5374 19.875 19.3999 19.4625 19.2249 18.9375L19.0374 18.3999C18.7874 17.6624 18.625 17.1624 17.3125 17.1624H12.6749C11.3749 17.1624 11.1749 17.7249 10.9499 18.3999L10.7624 18.9375C10.5874 19.45 10.4499 19.875 9.47495 19.875H7.77495C6.68745 19.875 5.83745 18.9624 5.93745 17.8999L6.44995 12.375C6.57495 11.0125 6.83744 9.8999 9.21244 9.8999H20.7749C23.1499 9.8999 23.4124 11.0125 23.5374 12.375L24.0499 17.8999Z" stroke="#AB060A" stroke-width="2" stroke-linecap="round" stroke-linejoin="round"/>
<path d="M7.74977 7.1875H6.83728" stroke="#AB060A" stroke-width="2" stroke-linecap="round" stroke-linejoin="round"/>
<path d="M23.1625 7.1875H22.25" stroke="#AB060A" stroke-width="2" stroke-linecap="round" stroke-linejoin="round"/>
<path d="M9.5625 13.5376H12.275" stroke="#AB060A" stroke-width="2" stroke-linecap="round" stroke-linejoin="round"/>
<path d="M17.7251 13.5376H20.4376" stroke="#AB060A" stroke-width="2" stroke-linecap="round" stroke-linejoin="round"/>
<path d="M15 21.25V22.5" stroke="#4D4D4D" stroke-width="2" stroke-linecap="round" stroke-linejoin="round"/>
<path d="M15 26.25V27.5" stroke="#4D4D4D" stroke-width="2" stroke-linecap="round" stroke-linejoin="round"/>
<path d="M3.75 22.5L2.5 27.5" stroke="#4D4D4D" stroke-width="2" stroke-linecap="round" stroke-linejoin="round"/>
<path d="M26.25 22.5L27.5 27.5" stroke="#4D4D4D" stroke-width="2" stroke-linecap="round" stroke-linejoin="round"/>
</svg>
