<svg width="44" height="44" viewBox="0 0 44 44" fill="none" xmlns="http://www.w3.org/2000/svg">
<path d="M13 15.9805C16.33 15.6505 19.68 15.4805 23.02 15.4805C25 15.4805 26.98 15.5805 28.96 15.7805L31 15.9805" stroke="#4D4D4D" stroke-width="1.5" stroke-linecap="round" stroke-linejoin="round"/>
<path d="M25.5 14.97L25.28 13.66C25.12 12.71 25 12 23.31 12H20.69C19 12 18.87 12.75 18.72 13.67L18.5 14.97" stroke="#4D4D4D" stroke-width="1.5" stroke-linecap="round" stroke-linejoin="round"/>
<path d="M15.15 19.1396L15.8 29.2096C15.91 30.7796 16 31.9996 18.79 31.9996H25.21C28 31.9996 28.09 30.7796 28.2 29.2096L28.85 19.1396" stroke="#4D4D4D" stroke-width="1.5" stroke-linecap="round" stroke-linejoin="round"/>
<path d="M23.67 26.5H20.34" stroke="#4D4D4D" stroke-width="1.5" stroke-linecap="round" stroke-linejoin="round"/>
<path d="M24.5 22.5H19.5" stroke="#4D4D4D" stroke-width="1.5" stroke-linecap="round" stroke-linejoin="round"/>
</svg>
