<svg width="25" height="26" viewBox="0 0 25 26" fill="none" xmlns="http://www.w3.org/2000/svg">
<path d="M16.3221 0.754738C16.8192 0.108141 17.7343 -0.170638 18.501 0.107081C19.1413 0.3212 19.6099 0.897837 19.7963 1.53807C20.1618 2.79099 20.5019 4.05132 20.8652 5.3053C21.7857 5.34134 22.684 5.70174 23.3716 6.31971C24.6649 7.44967 25.2725 9.31632 24.8839 10.9964C24.6627 12.0257 24.0456 12.9521 23.1873 13.5531C23.5054 14.6894 23.8255 15.8247 24.1478 16.9599C24.2889 17.4348 24.3953 17.9415 24.2742 18.4344C24.092 19.2972 23.2684 19.9566 22.3944 19.9587C21.6435 19.9884 21.0379 19.4743 20.3755 19.2018C18.5263 18.3984 16.5117 18.0274 14.5066 17.9288C13.2334 17.9002 11.9222 17.9055 10.6996 18.3136C11.125 19.8325 11.5547 21.3494 11.9823 22.8673C12.1434 23.4206 12.1918 24.0291 11.9802 24.576C11.6916 25.3668 10.9165 25.9392 10.0835 25.99C8.98197 26.1035 7.99205 25.2321 7.74878 24.1838C7.31174 22.6447 6.87996 21.1035 6.44503 19.5633C5.91742 19.7615 5.31505 19.7212 4.86537 19.3598C4.33776 19.5124 3.79646 19.734 3.23621 19.6333C2.30421 19.4976 1.52491 18.745 1.27427 17.8419C0.878302 16.4501 0.486546 15.0573 0.0968959 13.6634C-0.165328 12.7412 0.109533 11.6547 0.862505 11.042C1.27954 10.6848 1.83347 10.5915 2.34107 10.4325C2.49693 10 2.82023 9.61312 3.27518 9.49122C4.977 8.98878 6.68303 8.50118 8.38486 7.99874C9.07148 7.75813 9.71072 7.39879 10.3373 7.03203C12.4235 5.74731 14.3149 4.07888 15.685 2.02779C15.983 1.6462 15.9999 1.12044 16.3221 0.754738ZM17.6027 1.20842C17.1246 1.3547 16.9603 1.93239 17.1046 2.37547C18.5547 7.54401 20.0185 12.7083 21.4687 17.8779C21.5529 18.1768 21.6677 18.5022 21.9468 18.674C22.2964 18.9146 22.8166 18.7884 23.0325 18.4259C23.2126 18.1461 23.1821 17.7942 23.0947 17.4889C21.6772 12.4581 20.2586 7.42741 18.8433 2.39667C18.7485 2.08397 18.6927 1.74689 18.4936 1.48084C18.2946 1.20842 17.9186 1.09182 17.6027 1.20842ZM9.42111 8.83614C10.1794 11.519 10.9323 14.2018 11.6895 16.8847C14.5761 16.5338 17.5479 16.8889 20.2766 17.8991C18.9096 13.0507 17.5437 8.2012 16.1768 3.35173C14.3886 5.67312 12.0549 7.57369 9.42111 8.83614ZM21.2033 6.50415C21.7477 8.45348 22.2975 10.4018 22.8503 12.349C23.4717 11.7596 23.8276 10.9159 23.8403 10.0583C23.9129 8.45666 22.8156 6.80413 21.2033 6.50415ZM3.65008 10.5936C3.37417 10.6275 3.50265 10.9424 3.54477 11.1162C4.26404 13.586 4.91171 16.0791 5.66468 18.5383C7.31174 18.1323 8.92721 17.5991 10.5616 17.1423C9.81708 14.5029 9.07464 11.8635 8.3301 9.22516C6.77044 9.68308 5.20658 10.1272 3.65008 10.5936ZM1.50595 12.0214C1.15422 12.3914 1.08155 12.9606 1.2332 13.4376C1.606 14.7679 1.98301 16.0971 2.35581 17.4274C2.47481 17.879 2.79075 18.3008 3.24569 18.445C3.62375 18.5722 4.00709 18.3941 4.37041 18.2955C3.7396 16.0642 3.113 13.8308 2.48219 11.5985C2.14519 11.7002 1.76607 11.7617 1.50595 12.0214ZM7.55606 19.2389C7.96782 20.7123 8.38696 22.1825 8.79767 23.657C8.89456 24.0068 9.01462 24.382 9.31475 24.6121C9.68018 24.9205 10.2594 24.9004 10.608 24.5749C10.965 24.2654 11.0282 23.7365 10.8997 23.3008C10.4711 21.7458 10.0245 20.1961 9.59172 18.6432C8.91246 18.8383 8.23531 19.0418 7.55606 19.2389Z" fill="#BE070B"/>
</svg>
