<svg width="78" height="78" viewBox="0 0 78 78" fill="none" xmlns="http://www.w3.org/2000/svg">
<g filter="url(#filter0_d_382_7595)">
<circle cx="39" cy="35" r="27" fill="#F5F5F6"/>
</g>
<g clip-path="url(#clip0_382_7595)">
<path d="M38.5869 19H39.4094C42.0006 19.0744 44.5787 19.7638 46.8331 21.0481C49.8438 22.735 52.2844 25.4231 53.6606 28.5887C54.5194 30.53 54.9644 32.6469 55 34.7675V35.4094C54.9294 37.7662 54.355 40.11 53.2844 42.2125C52.2419 44.2644 50.7581 46.0919 48.9544 47.5219C47.0712 49.0256 44.8438 50.0994 42.4888 50.6169C41.4794 50.85 40.4456 50.9569 39.4125 51H38.4875C35.7638 50.8994 33.0656 50.1175 30.7344 48.7C27.6181 46.8194 25.1712 43.8525 23.9431 40.4237C23.3656 38.8356 23.0637 37.155 23 35.4688V34.59C23.0512 33.01 23.3144 31.4344 23.8181 29.935C25.0306 26.2669 27.6331 23.0912 30.9738 21.1562C33.2769 19.8106 35.9225 19.0763 38.5869 19ZM33.7756 28.9625C32.4825 30.0856 31.5763 31.6413 31.2312 33.3188C30.8762 35.0013 31.0887 36.8 31.8381 38.3487C31.8688 38.4331 31.9475 38.5169 31.9137 38.6131C31.6388 39.9487 31.3606 41.2844 31.0894 42.6206C31.0237 42.8456 31.2738 43.0656 31.4913 42.9831C32.8119 42.6694 34.1337 42.3612 35.4531 42.0413C36.1956 42.3994 36.9862 42.6625 37.8031 42.7825C39.4544 43.0356 41.1838 42.7481 42.6637 41.9725C44.295 41.1287 45.6087 39.695 46.3144 38C46.9844 36.4112 47.1106 34.6006 46.6725 32.9331C46.1681 30.9706 44.8769 29.2225 43.1469 28.1681C41.675 27.2594 39.8994 26.8612 38.18 27.0425C36.5594 27.205 35 27.89 33.7756 28.9625Z" fill="#2AA81A"/>
<path d="M36.0769 29.451C37.3075 28.7916 38.7638 28.5697 40.1356 28.8272C41.5069 29.0766 42.7906 29.8053 43.6906 30.8716C44.7756 32.1103 45.3256 33.796 45.1869 35.4366C45.0688 36.9966 44.3294 38.4972 43.1663 39.5428C41.6669 40.9147 39.4706 41.4628 37.5019 40.9641C36.8588 40.8153 36.2638 40.5228 35.68 40.2228C34.8575 40.416 34.0363 40.6122 33.2138 40.8041C33.3863 39.9691 33.5594 39.1341 33.7375 38.3003C33.5475 37.9103 33.3331 37.531 33.1838 37.1228C32.7081 35.8728 32.66 34.4691 33.0388 33.1878C33.4894 31.5985 34.62 30.2241 36.0769 29.451ZM36.2563 31.1372C36.0613 31.1803 35.9206 31.3347 35.78 31.4647C35.4375 31.7985 35.1219 32.1985 35.0263 32.6778C34.9106 33.4672 35.1575 34.266 35.5488 34.9466C36.0406 35.7978 36.7288 36.5178 37.4675 37.1578C38.1331 37.7253 38.8688 38.2278 39.6919 38.5366C40.3863 38.7941 41.1631 38.9016 41.8863 38.6991C42.4631 38.4972 42.8744 38.0016 43.1894 37.4997C43.3863 37.1928 43.2019 36.7428 42.85 36.6553C42.3213 36.501 41.7925 36.346 41.26 36.2041C40.8719 36.1153 40.6456 36.4941 40.4025 36.7191C40.2463 36.9003 39.9725 36.9872 39.7506 36.8797C39.215 36.6041 38.7206 36.251 38.2813 35.8397C37.9125 35.5216 37.5675 35.1741 37.2775 34.7822C37.1619 34.626 37.0175 34.4628 37.0363 34.2541C37.0456 33.9672 37.2931 33.7816 37.4425 33.5616C37.5894 33.3947 37.6506 33.1478 37.5544 32.9397C37.3419 32.4497 37.125 31.9616 36.9075 31.4741C36.8063 31.2253 36.5188 31.0735 36.2563 31.1372Z" fill="#2AA81A"/>
<path d="M33.7756 28.9628C35 27.8903 36.5594 27.2053 38.18 27.0428C39.8994 26.8615 41.675 27.2597 43.1469 28.1684C44.8769 29.2228 46.1681 30.9709 46.6725 32.9334C47.1106 34.6009 46.9844 36.4115 46.3144 38.0003C45.6088 39.6953 44.295 41.129 42.6638 41.9728C41.1838 42.7484 39.4544 43.0359 37.8031 42.7828C36.9863 42.6628 36.1956 42.3997 35.4531 42.0415C34.1338 42.3615 32.8119 42.6697 31.4913 42.9834C31.2738 43.0659 31.0238 42.8459 31.0894 42.6209C31.3606 41.2847 31.6388 39.949 31.9138 38.6134C31.9475 38.5172 31.8688 38.4334 31.8381 38.349C31.0888 36.8003 30.8763 35.0015 31.2313 33.319C31.5763 31.6415 32.4825 30.0859 33.7756 28.9628ZM36.0769 29.4515C34.62 30.2247 33.4894 31.599 33.0388 33.1884C32.66 34.4697 32.7081 35.8734 33.1838 37.1234C33.3331 37.5315 33.5475 37.9109 33.7375 38.3009C33.5594 39.1347 33.3863 39.9697 33.2138 40.8047C34.0363 40.6128 34.8575 40.4165 35.68 40.2234C36.2638 40.5234 36.8588 40.8159 37.5019 40.9647C39.4706 41.4634 41.6669 40.9153 43.1663 39.5434C44.3294 38.4978 45.0688 36.9972 45.1869 35.4372C45.3256 33.7965 44.7756 32.1109 43.6906 30.8722C42.7906 29.8059 41.5069 29.0772 40.1356 28.8278C38.7638 28.5703 37.3075 28.7922 36.0769 29.4515Z" fill="white"/>
<path d="M36.2563 31.1376C36.5188 31.0738 36.8063 31.2257 36.9075 31.4745C37.125 31.962 37.3419 32.4501 37.5544 32.9401C37.6506 33.1482 37.5894 33.3951 37.4425 33.562C37.2931 33.782 37.0456 33.9676 37.0363 34.2545C37.0175 34.4632 37.1619 34.6263 37.2775 34.7826C37.5675 35.1745 37.9125 35.522 38.2813 35.8401C38.7206 36.2513 39.215 36.6045 39.7506 36.8801C39.9725 36.9876 40.2463 36.9007 40.4025 36.7195C40.6456 36.4945 40.8719 36.1157 41.26 36.2045C41.7925 36.3463 42.3213 36.5013 42.85 36.6557C43.2019 36.7432 43.3863 37.1932 43.1894 37.5001C42.8744 38.002 42.4631 38.4976 41.8863 38.6995C41.1631 38.902 40.3863 38.7945 39.6919 38.537C38.8688 38.2282 38.1331 37.7257 37.4675 37.1582C36.7288 36.5182 36.0406 35.7982 35.5488 34.947C35.1575 34.2663 34.9106 33.4676 35.0263 32.6782C35.1219 32.1988 35.4375 31.7988 35.78 31.4651C35.9206 31.3351 36.0613 31.1807 36.2563 31.1376Z" fill="white"/>
</g>
<defs>
<filter id="filter0_d_382_7595" x="0" y="0" width="78" height="78" filterUnits="userSpaceOnUse" color-interpolation-filters="sRGB">
<feFlood flood-opacity="0" result="BackgroundImageFix"/>
<feColorMatrix in="SourceAlpha" type="matrix" values="0 0 0 0 0 0 0 0 0 0 0 0 0 0 0 0 0 0 127 0" result="hardAlpha"/>
<feOffset dy="4"/>
<feGaussianBlur stdDeviation="6"/>
<feComposite in2="hardAlpha" operator="out"/>
<feColorMatrix type="matrix" values="0 0 0 0 0 0 0 0 0 0 0 0 0 0 0 0 0 0 0.08 0"/>
<feBlend mode="normal" in2="BackgroundImageFix" result="effect1_dropShadow_382_7595"/>
<feBlend mode="normal" in="SourceGraphic" in2="effect1_dropShadow_382_7595" result="shape"/>
</filter>
<clipPath id="clip0_382_7595">
<rect width="32" height="32" fill="white" transform="translate(23 19)"/>
</clipPath>
</defs>
</svg>
